# xmcd
#
# Track frame offsets:
# 182
# 63985
# 99487
# 142337
# 204680
# 237830
#
# Disc length: 3706 seconds
#
#
# Revision: 4
# Processed by: cddbd v1.5.2PL0 Copyright (c) Steve Scherf et al.
# Submitted via: FreeRIP 2.951 
#
DISCID=570e7806
DTITLE=Wolfgang Amadeus Mozart - The Piano Concertos [CD 8)
DYEAR=1988
DGENRE=Classical
TTITLE0=Piano Concerto No.24 in C minor, K.491 - I. Allegro
TTITLE1=Piano Concerto No.24 in C minor, K.491 - II. Larghetto
TTITLE2=Piano Concerto No.24 in C minor, K.491 - III. Alegretto
TTITLE3=Piano Concerto No.25 in C major, K.503 - I. Allegro Maestoso
TTITLE4=Piano Concerto No.25 in C major, K.503 - II. Andante
TTITLE5=Piano Concerto No.25 in C major, K.503 - III. Allegretto
EXTD=Malcolm Bilson, John Eliot Gardiner, English Baroque Soloists
EXTT0=
EXTT1=
EXTT2=
EXTT3=
EXTT4=
EXTT5=
PLAYORDER=
